<svg xmlns="http://www.w3.org/2000/svg" viewBox="0 0 266.6299960302278 60">
  <defs>
    <linearGradient gradientTransform="rotate(25)" id="82021c93-5875-4588-bd6c-a47cb2a05a67" x1="0%" y1="0%" x2="100%" y2="0%">
      <stop offset="0%" stop-color="rgb(233, 142, 13)" stop-opacity="1" />
      <stop offset="100%" stop-color="rgb(21, 54, 241)" stop-opacity="1" />
    </linearGradient>
  </defs>
  <g id="4b1f3b8a-5261-4ded-b190-a0470706db7d" fill="url(#82021c93-5875-4588-bd6c-a47cb2a05a67)" transform="matrix(4.713275543019363,0,0,4.713275543019363,-2.7808360500154663,-13.7156315194743)">
    <path d="M0.84 12.77Q0.73 12.77 0.66 12.68Q0.59 12.59 0.59 12.46L0.59 12.46Q0.60 12.25 0.68 12.21Q0.76 12.17 0.95 12.17L0.95 12.17Q1.36 12.17 1.55 12.02Q1.75 11.87 1.80 11.66Q1.85 11.44 1.86 11.09L1.86 11.09L1.86 5.53Q1.85 5.18 1.80 4.96Q1.75 4.75 1.55 4.60Q1.36 4.45 0.95 4.45L0.95 4.45L0.87 4.45Q0.73 4.45 0.67 4.40Q0.60 4.35 0.59 4.16L0.59 4.16Q0.59 4.03 0.66 3.94Q0.73 3.85 0.84 3.85L0.84 3.85Q1.75 3.89 2.52 3.89L2.52 3.89L4.62 3.89Q5.84 3.89 6.98 4.40Q8.12 4.90 8.12 6.41L8.12 6.41Q8.12 7.25 7.62 7.91Q7.11 8.57 6.31 8.93Q5.50 9.30 4.63 9.30L4.63 9.30Q3.84 9.30 3.23 9.07L3.23 9.07L3.23 11.09Q3.25 11.44 3.30 11.66Q3.35 11.87 3.54 12.02Q3.74 12.17 4.14 12.17L4.14 12.17L4.23 12.17Q4.37 12.17 4.43 12.22Q4.49 12.26 4.51 12.46L4.51 12.46Q4.51 12.59 4.45 12.68Q4.38 12.77 4.26 12.77L4.26 12.77Q3.36 12.73 2.51 12.73L2.51 12.73Q1.75 12.73 0.84 12.77L0.84 12.77ZM4.23 8.67Q4.73 8.67 5.27 8.46Q5.81 8.26 6.19 7.76Q6.57 7.27 6.57 6.45L6.57 6.45Q6.57 5.22 5.78 4.82Q5.00 4.41 4.12 4.41L4.12 4.41Q3.75 4.41 3.57 4.49Q3.39 4.56 3.31 4.79Q3.23 5.01 3.23 5.49L3.23 5.49L3.23 8.51Q3.57 8.67 4.23 8.67L4.23 8.67ZM9.14 12.77Q9.04 12.77 8.98 12.68Q8.92 12.60 8.92 12.49L8.92 12.49Q8.93 12.31 9.00 12.27Q9.07 12.24 9.25 12.24L9.25 12.24Q9.62 12.24 9.77 12.11Q9.93 11.98 9.95 11.82Q9.97 11.65 9.97 11.28L9.97 11.28L9.97 8.08Q9.97 7.71 9.95 7.55Q9.93 7.38 9.77 7.25Q9.62 7.13 9.25 7.13L9.25 7.13Q9.09 7.13 9.00 7.08Q8.92 7.03 8.92 6.85L8.92 6.85Q8.92 6.76 8.97 6.69Q9.03 6.61 9.14 6.59L9.14 6.59Q10.05 6.45 10.64 6.23L10.64 6.23Q10.88 6.16 10.96 6.15L10.96 6.15L11.00 6.15Q11.23 6.15 11.23 6.41L11.23 6.41L11.23 7.28L11.27 7.28Q11.76 6.79 12.26 6.50Q12.77 6.22 13.17 6.22L13.17 6.22Q13.64 6.22 13.91 6.56Q14.18 6.90 14.18 7.35L14.18 7.35Q14.18 7.74 13.94 8.05Q13.71 8.36 13.29 8.36L13.29 8.36Q13.09 8.36 12.94 8.27Q12.80 8.19 12.78 8.13L12.78 8.13Q12.80 8.11 12.92 7.96Q13.05 7.81 13.05 7.62L13.05 7.62Q13.05 7.36 12.91 7.21Q12.78 7.06 12.56 7.06L12.56 7.06Q12.32 7.06 11.96 7.29Q11.59 7.52 11.24 7.87L11.24 7.87L11.24 11.28Q11.24 11.65 11.27 11.82Q11.30 11.98 11.45 12.11Q11.61 12.24 11.97 12.24L11.97 12.24L12.05 12.24Q12.17 12.24 12.22 12.28Q12.28 12.32 12.29 12.49L12.29 12.49Q12.29 12.60 12.24 12.68Q12.18 12.77 12.07 12.77L12.07 12.77Q11.26 12.73 10.60 12.73L10.60 12.73Q9.97 12.73 9.14 12.77L9.14 12.77ZM18.20 12.89Q17.15 12.89 16.41 12.45Q15.68 12.00 15.30 11.23Q14.92 10.46 14.92 9.52L14.92 9.52Q14.92 8.69 15.31 7.93Q15.69 7.17 16.41 6.69Q17.12 6.22 18.05 6.22L18.05 6.22Q19.29 6.22 19.96 6.85Q20.64 7.49 20.73 8.57L20.73 8.57Q20.73 9.03 20.48 9.20Q20.23 9.37 19.75 9.37L19.75 9.37L16.35 9.37Q16.35 10.67 16.89 11.43Q17.43 12.19 18.56 12.19L18.56 12.19Q19.17 12.19 19.59 11.94Q20.01 11.68 20.38 11.06L20.38 11.06Q20.45 10.99 20.52 10.99L20.52 10.99Q20.62 10.99 20.69 11.05L20.69 11.05Q20.83 11.13 20.83 11.30L20.83 11.30Q20.83 11.38 20.80 11.42L20.80 11.42Q20.37 12.12 19.70 12.51Q19.04 12.89 18.20 12.89L18.20 12.89ZM16.35 8.83L18.63 8.83Q19.35 8.83 19.39 8.25L19.39 8.25Q19.39 7.60 19.04 7.15Q18.69 6.71 18.05 6.71L18.05 6.71Q17.33 6.71 16.87 7.27Q16.41 7.84 16.35 8.83L16.35 8.83ZM21.92 15.64Q21.83 15.64 21.76 15.55Q21.70 15.47 21.70 15.36L21.70 15.36Q21.71 15.18 21.78 15.14Q21.84 15.11 22.02 15.11L22.02 15.11Q22.37 15.11 22.53 14.98Q22.68 14.85 22.71 14.67Q22.75 14.49 22.75 14.15L22.75 14.15L22.75 8.08Q22.75 7.71 22.73 7.55Q22.71 7.38 22.55 7.25Q22.40 7.13 22.04 7.13L22.04 7.13Q21.87 7.13 21.78 7.08Q21.70 7.03 21.70 6.85L21.70 6.85Q21.70 6.76 21.76 6.69Q21.81 6.61 21.92 6.59L21.92 6.59Q22.83 6.45 23.42 6.23L23.42 6.23Q23.66 6.16 23.74 6.15L23.74 6.15L23.79 6.15Q24.01 6.15 24.01 6.41L24.01 6.41L24.01 7.08L24.05 7.08Q24.46 6.71 25.00 6.46Q25.55 6.22 26.04 6.22L26.04 6.22Q26.88 6.22 27.55 6.64Q28.21 7.06 28.59 7.82Q28.97 8.58 28.97 9.55L28.97 9.55Q28.97 10.53 28.52 11.29Q28.07 12.05 27.33 12.47Q26.59 12.89 25.76 12.89L25.76 12.89Q25.19 12.89 24.79 12.78Q24.40 12.66 24.08 12.46L24.08 12.46L24.02 12.46L24.02 14.15Q24.02 14.49 24.06 14.67Q24.09 14.85 24.25 14.98Q24.40 15.11 24.75 15.11L24.75 15.11L24.84 15.11Q24.95 15.11 25.00 15.15Q25.06 15.19 25.07 15.36L25.07 15.36Q25.07 15.47 25.02 15.55Q24.96 15.64 24.85 15.64L24.85 15.64Q24.04 15.60 23.38 15.60L23.38 15.60Q22.75 15.60 21.92 15.64L21.92 15.64ZM25.65 12.42Q26.63 12.42 27.08 11.55Q27.54 10.68 27.54 9.59L27.54 9.59Q27.54 8.50 27.03 7.71Q26.53 6.92 25.54 6.92L25.54 6.92Q25.05 6.92 24.70 7.11Q24.36 7.29 24.02 7.64L24.02 7.64L24.02 11.40Q24.19 11.82 24.62 12.12Q25.05 12.42 25.65 12.42L25.65 12.42ZM30.03 12.77Q29.92 12.77 29.86 12.68Q29.79 12.59 29.79 12.46L29.79 12.46Q29.81 12.25 29.88 12.21Q29.95 12.17 30.14 12.17L30.14 12.17Q30.55 12.17 30.74 12.02Q30.94 11.87 30.99 11.66Q31.04 11.44 31.05 11.09L31.05 11.09L31.05 5.53Q31.04 5.18 30.99 4.96Q30.94 4.75 30.74 4.60Q30.55 4.45 30.14 4.45L30.14 4.45L30.06 4.45Q29.92 4.45 29.86 4.40Q29.81 4.35 29.79 4.16L29.79 4.16Q29.79 4.03 29.86 3.94Q29.92 3.85 30.03 3.85L30.03 3.85Q30.95 3.89 31.70 3.89L31.70 3.89Q32.54 3.89 33.45 3.85L33.45 3.85Q33.57 3.85 33.64 3.94Q33.70 4.03 33.70 4.16L33.70 4.16Q33.68 4.37 33.61 4.41Q33.53 4.45 33.35 4.45L33.35 4.45Q32.94 4.45 32.75 4.60Q32.55 4.75 32.50 4.96Q32.45 5.18 32.44 5.53L32.44 5.53L32.44 11.30Q32.47 11.59 32.51 11.75Q32.55 11.91 32.76 12.05Q32.97 12.18 33.42 12.17L33.42 12.17L34.68 12.17Q35.17 12.15 35.42 12.01Q35.67 11.86 35.82 11.55Q35.97 11.24 36.18 10.54L36.18 10.54Q36.27 10.29 36.65 10.35L36.65 10.35Q36.78 10.37 36.89 10.46Q37.00 10.54 36.99 10.67L36.99 10.67L36.71 12.43Q36.67 12.61 36.58 12.67Q36.50 12.73 36.30 12.73L36.30 12.73L31.71 12.73Q30.95 12.73 30.03 12.77L30.03 12.77ZM37.87 12.77Q37.77 12.77 37.71 12.68Q37.65 12.60 37.65 12.49L37.65 12.49Q37.66 12.31 37.73 12.27Q37.80 12.24 37.98 12.24L37.98 12.24Q38.35 12.24 38.50 12.11Q38.65 11.98 38.67 11.82Q38.70 11.65 38.70 11.28L38.70 11.28L38.70 8.08Q38.70 7.71 38.67 7.55Q38.65 7.38 38.50 7.25Q38.35 7.13 37.98 7.13L37.98 7.13Q37.81 7.13 37.73 7.08Q37.65 7.03 37.65 6.85L37.65 6.85Q37.65 6.76 37.70 6.69Q37.76 6.61 37.87 6.59L37.87 6.59Q38.75 6.47 39.38 6.23L39.38 6.23Q39.58 6.16 39.70 6.15L39.70 6.15L39.75 6.15Q39.97 6.15 39.97 6.41L39.97 6.41L39.97 11.28Q39.97 11.65 40.00 11.82Q40.03 11.98 40.18 12.11Q40.33 12.24 40.70 12.24L40.70 12.24L40.78 12.24Q40.89 12.24 40.95 12.28Q41.01 12.32 41.02 12.49L41.02 12.49Q41.02 12.60 40.96 12.68Q40.91 12.77 40.80 12.77L40.80 12.77Q39.98 12.73 39.33 12.73L39.33 12.73Q38.70 12.73 37.87 12.77L37.87 12.77ZM39.26 4.59Q38.86 4.59 38.60 4.35Q38.33 4.10 38.33 3.74L38.33 3.74Q38.33 3.42 38.65 3.16Q38.98 2.91 39.38 2.91L39.38 2.91Q39.73 2.91 39.96 3.16Q40.18 3.40 40.18 3.78L40.18 3.78Q40.18 4.12 39.91 4.35Q39.65 4.59 39.26 4.59L39.26 4.59ZM41.94 12.77Q41.85 12.77 41.78 12.68Q41.72 12.60 41.72 12.49L41.72 12.49Q41.73 12.31 41.80 12.27Q41.87 12.24 42.06 12.24L42.06 12.24Q42.42 12.24 42.57 12.11Q42.73 11.98 42.75 11.82Q42.77 11.65 42.77 11.28L42.77 11.28L42.77 8.08Q42.77 7.71 42.75 7.55Q42.73 7.38 42.57 7.25Q42.42 7.13 42.06 7.13L42.06 7.13Q41.89 7.13 41.80 7.08Q41.72 7.03 41.72 6.85L41.72 6.85Q41.72 6.76 41.78 6.69Q41.83 6.61 41.94 6.59L41.94 6.59Q42.85 6.45 43.44 6.23L43.44 6.23Q43.68 6.16 43.76 6.15L43.76 6.15L43.81 6.15Q44.03 6.15 44.03 6.41L44.03 6.41L44.03 7.29L44.07 7.29Q44.48 6.92 44.73 6.71Q44.98 6.51 45.38 6.36Q45.78 6.22 46.33 6.22L46.33 6.22Q47.28 6.22 47.84 6.79Q48.40 7.36 48.40 8.30L48.40 8.30L48.40 11.28Q48.40 11.65 48.43 11.82Q48.45 11.98 48.61 12.11Q48.76 12.24 49.13 12.24L49.13 12.24L49.21 12.24Q49.32 12.24 49.38 12.28Q49.43 12.32 49.45 12.49L49.45 12.49Q49.45 12.60 49.38 12.68Q49.32 12.77 49.22 12.77L49.22 12.77Q48.41 12.73 47.75 12.73L47.75 12.73Q47.12 12.73 46.30 12.77L46.30 12.77Q46.20 12.77 46.14 12.68Q46.07 12.60 46.07 12.49L46.07 12.49Q46.09 12.31 46.15 12.27Q46.21 12.24 46.40 12.24L46.40 12.24Q46.76 12.24 46.91 12.11Q47.07 11.98 47.10 11.82Q47.12 11.65 47.12 11.28L47.12 11.28L47.12 8.32Q47.12 7.67 46.72 7.33Q46.31 6.99 45.78 6.99L45.78 6.99Q45.14 6.99 44.67 7.30Q44.21 7.62 44.04 7.95L44.04 7.95L44.04 11.28Q44.04 11.65 44.07 11.82Q44.10 11.98 44.25 12.11Q44.41 12.24 44.77 12.24L44.77 12.24L44.86 12.24Q44.97 12.24 45.02 12.28Q45.08 12.32 45.09 12.49L45.09 12.49Q45.09 12.60 45.04 12.68Q44.98 12.77 44.87 12.77L44.87 12.77Q44.06 12.73 43.40 12.73L43.40 12.73Q42.77 12.73 41.94 12.77L41.94 12.77ZM50.09 12.77Q49.99 12.77 49.94 12.68Q49.88 12.59 49.88 12.49L49.88 12.49Q49.90 12.32 49.95 12.28Q50.01 12.24 50.12 12.24L50.12 12.24Q50.43 12.24 50.62 12.15Q50.82 12.07 50.96 11.93Q51.10 11.79 51.41 11.41L51.41 11.41Q51.76 11.02 52.82 9.70L52.82 9.70L51.23 7.45Q51.04 7.21 50.84 7.08Q50.64 6.94 50.34 6.89L50.34 6.89Q50.30 6.87 50.19 6.86Q50.08 6.85 50.05 6.79Q50.02 6.73 50.02 6.59L50.02 6.59Q50.02 6.43 50.11 6.38Q50.20 6.34 50.34 6.34Q50.47 6.33 50.51 6.33L50.51 6.33Q51.94 6.26 52.58 7.11L52.58 7.11L52.85 7.50Q53.21 8.12 53.65 8.69L53.65 8.69L54.59 7.48Q54.82 7.15 54.82 7.03L54.82 7.03Q54.82 6.94 54.70 6.92Q54.57 6.89 54.24 6.87L54.24 6.87L54.15 6.87Q54.04 6.87 53.99 6.83Q53.94 6.79 53.93 6.62L53.93 6.62Q53.93 6.52 53.98 6.43Q54.03 6.34 54.12 6.34L54.12 6.34Q54.92 6.38 55.30 6.38L55.30 6.38Q55.69 6.38 56.50 6.34L56.50 6.34Q56.60 6.34 56.66 6.43Q56.71 6.52 56.71 6.62L56.71 6.62Q56.70 6.78 56.64 6.82Q56.59 6.86 56.51 6.87Q56.43 6.87 56.41 6.87L56.41 6.87Q56 6.89 55.80 7.04Q55.59 7.18 55.19 7.70L55.19 7.70Q55.05 7.85 54.74 8.26L54.74 8.26Q54.19 8.95 54.01 9.17L54.01 9.17Q55.16 10.65 55.72 11.41L55.72 11.41Q55.99 11.79 56.25 12.01Q56.52 12.24 56.84 12.24L56.84 12.24L56.92 12.24Q57.04 12.24 57.09 12.28Q57.15 12.32 57.16 12.49L57.16 12.49Q57.16 12.60 57.10 12.68Q57.04 12.77 56.94 12.77L56.94 12.77Q56.11 12.73 55.59 12.73L55.59 12.73Q54.94 12.73 54.11 12.77L54.11 12.77Q54.01 12.77 53.95 12.68Q53.89 12.60 53.89 12.49L53.89 12.49Q53.90 12.31 53.96 12.27Q54.03 12.24 54.21 12.24L54.21 12.24Q54.50 12.24 54.50 12.04L54.50 12.04Q54.50 11.90 54.31 11.63L54.31 11.63L53.21 10.18L52.01 11.63Q51.77 11.94 51.77 12.05L51.77 12.05Q51.77 12.15 51.91 12.19Q52.05 12.24 52.36 12.24L52.36 12.24L52.44 12.24Q52.56 12.24 52.60 12.28Q52.65 12.32 52.67 12.49L52.67 12.49Q52.67 12.59 52.62 12.68Q52.57 12.77 52.47 12.77L52.47 12.77Q51.67 12.73 51.30 12.73L51.30 12.73Q50.92 12.73 50.09 12.77L50.09 12.77Z" />
  </g>
</svg>
